<mxfile modified="2023-07-24T14:38:59.625Z" host="app.diagrams.net" agent="Mozilla/5.0 (X11; Linux x86_64; rv:109.0) Gecko/20100101 Firefox/115.0" etag="9JSk2wzSzYmFNM4FZA1e" version="21.6.5" type="github">
  <diagram id="l8hXMBHkgcEJcSW0mbfh" name="Page-1">
    <mxGraphModel dx="1434" dy="747" grid="1" gridSize="10" guides="1" tooltips="1" connect="1" arrows="1" fold="1" page="1" pageScale="1" pageWidth="1169" pageHeight="827" math="0" shadow="0">
      <root>
        <mxCell id="0" />
        <mxCell id="1" parent="0" />
        <mxCell id="lSrKaYMIX6WWyUWsc2Ek-50" value="" style="rounded=0;whiteSpace=wrap;html=1;fillColor=none;" vertex="1" parent="1">
          <mxGeometry x="623" y="1301.32" width="100" height="40" as="geometry" />
        </mxCell>
        <mxCell id="7ugx0wIAxtT85yUxJp1T-1" value="&lt;div style=&quot;font-size: 19px;&quot;&gt;&lt;font color=&quot;#ffffff&quot;&gt;&lt;b&gt;&lt;font style=&quot;font-size: 19px;&quot;&gt;FrontEnd API&lt;/font&gt;&lt;/b&gt;&lt;/font&gt;&lt;/div&gt;&lt;div style=&quot;font-size: 19px;&quot;&gt;&lt;b&gt;&lt;font style=&quot;font-size: 19px;&quot;&gt;&lt;br&gt;&lt;/font&gt;&lt;/b&gt;&lt;/div&gt;" style="html=1;whiteSpace=wrap;strokeColor=#9673a6;fillColor=#7F00FF;labelPosition=center;verticalLabelPosition=middle;verticalAlign=top;align=center;fontSize=12;outlineConnect=0;spacingTop=-6;sketch=0;shape=mxgraph.sitemap.services;" parent="1" vertex="1">
          <mxGeometry x="210" y="190" width="170" height="110" as="geometry" />
        </mxCell>
        <mxCell id="7ugx0wIAxtT85yUxJp1T-2" value="&lt;div&gt;&lt;b&gt;&lt;font style=&quot;font-size: 20px;&quot;&gt;MyService Client&lt;/font&gt;&lt;/b&gt;&lt;/div&gt;&lt;div&gt;&lt;b&gt;&lt;font style=&quot;font-size: 20px;&quot;&gt;&lt;br&gt;&lt;/font&gt;&lt;/b&gt;&lt;/div&gt;" style="html=1;whiteSpace=wrap;strokeColor=none;fillColor=#006600;labelPosition=center;verticalLabelPosition=middle;verticalAlign=top;align=center;fontSize=12;outlineConnect=0;spacingTop=-6;fontColor=#FFFFFF;sketch=0;shape=mxgraph.sitemap.services;" parent="1" vertex="1">
          <mxGeometry x="540" y="110" width="170" height="110" as="geometry" />
        </mxCell>
        <mxCell id="7ugx0wIAxtT85yUxJp1T-3" value="&lt;b&gt;&lt;font style=&quot;font-size: 19px;&quot;&gt;Blue Service&lt;br&gt;&lt;/font&gt;&lt;/b&gt;" style="html=1;whiteSpace=wrap;strokeColor=none;fillColor=#0000FF;labelPosition=center;verticalLabelPosition=middle;verticalAlign=top;align=center;fontSize=12;outlineConnect=0;spacingTop=-6;fontColor=#FFFFFF;sketch=0;shape=mxgraph.sitemap.services;" parent="1" vertex="1">
          <mxGeometry x="870" y="50" width="170" height="110" as="geometry" />
        </mxCell>
        <mxCell id="7ugx0wIAxtT85yUxJp1T-4" value="&lt;font color=&quot;#000000&quot;&gt;&lt;b&gt;&lt;font style=&quot;font-size: 19px;&quot;&gt;Red Service&lt;br&gt;&lt;/font&gt;&lt;/b&gt;&lt;/font&gt;" style="html=1;whiteSpace=wrap;strokeColor=none;fillColor=#FF0000;labelPosition=center;verticalLabelPosition=middle;verticalAlign=top;align=center;fontSize=12;outlineConnect=0;spacingTop=-6;fontColor=#FFFFFF;sketch=0;shape=mxgraph.sitemap.services;" parent="1" vertex="1">
          <mxGeometry x="830" y="270" width="170" height="110" as="geometry" />
        </mxCell>
        <mxCell id="7ugx0wIAxtT85yUxJp1T-5" value="&lt;div style=&quot;font-size: 19px;&quot;&gt;&lt;font size=&quot;1&quot; color=&quot;#000000&quot;&gt;&lt;b style=&quot;font-size: 19px;&quot;&gt;SmallRye Stork&lt;/b&gt;&lt;/font&gt;&lt;/div&gt;" style="html=1;whiteSpace=wrap;strokeColor=none;fillColor=#CC6600;labelPosition=center;verticalLabelPosition=middle;verticalAlign=top;align=center;fontSize=12;outlineConnect=0;spacingTop=-6;fontColor=#FFFFFF;sketch=0;shape=mxgraph.sitemap.services;" parent="1" vertex="1">
          <mxGeometry x="500" y="310" width="170" height="110" as="geometry" />
        </mxCell>
        <mxCell id="7ugx0wIAxtT85yUxJp1T-7" value="&lt;font style=&quot;font-size: 19px;&quot;&gt;&lt;b&gt;Consul Service&lt;/b&gt;&lt;br&gt;&lt;/font&gt;" style="html=1;whiteSpace=wrap;strokeColor=none;fillColor=#FF00FF;labelPosition=center;verticalLabelPosition=middle;verticalAlign=top;align=center;fontSize=12;outlineConnect=0;spacingTop=-6;fontColor=#FFFFFF;sketch=0;shape=mxgraph.sitemap.services;" parent="1" vertex="1">
          <mxGeometry x="620" y="500" width="170" height="110" as="geometry" />
        </mxCell>
        <mxCell id="7ugx0wIAxtT85yUxJp1T-11" value="" style="curved=1;endArrow=classic;html=1;rounded=0;entryX=0;entryY=0.5;entryDx=0;entryDy=0;entryPerimeter=0;" parent="1" source="7ugx0wIAxtT85yUxJp1T-14" target="7ugx0wIAxtT85yUxJp1T-1" edge="1">
          <mxGeometry width="50" height="50" relative="1" as="geometry">
            <mxPoint x="70" y="210" as="sourcePoint" />
            <mxPoint x="200" y="230" as="targetPoint" />
            <Array as="points">
              <mxPoint x="110" y="210" />
              <mxPoint x="110" y="270" />
              <mxPoint x="160" y="230" />
            </Array>
          </mxGeometry>
        </mxCell>
        <mxCell id="7ugx0wIAxtT85yUxJp1T-14" value="&lt;font style=&quot;font-size: 19px;&quot;&gt;&lt;b&gt;GET/api&lt;/b&gt;&lt;/font&gt;" style="whiteSpace=wrap;html=1;fillColor=none;strokeWidth=3;" parent="1" vertex="1">
          <mxGeometry x="20" y="160" width="120" height="60" as="geometry" />
        </mxCell>
        <mxCell id="7ugx0wIAxtT85yUxJp1T-22" value="" style="curved=1;endArrow=classic;html=1;rounded=0;exitX=1;exitY=0.5;exitDx=0;exitDy=0;exitPerimeter=0;entryX=0;entryY=0.5;entryDx=0;entryDy=0;entryPerimeter=0;" parent="1" source="7ugx0wIAxtT85yUxJp1T-1" target="7ugx0wIAxtT85yUxJp1T-2" edge="1">
          <mxGeometry width="50" height="50" relative="1" as="geometry">
            <mxPoint x="430" y="230" as="sourcePoint" />
            <mxPoint x="530" y="170" as="targetPoint" />
            <Array as="points">
              <mxPoint x="480" y="230" />
              <mxPoint x="430" y="180" />
            </Array>
          </mxGeometry>
        </mxCell>
        <mxCell id="7ugx0wIAxtT85yUxJp1T-25" value="" style="curved=1;endArrow=classic;html=1;rounded=0;exitX=1;exitY=0.5;exitDx=0;exitDy=0;exitPerimeter=0;entryX=0;entryY=0.5;entryDx=0;entryDy=0;entryPerimeter=0;" parent="1" source="7ugx0wIAxtT85yUxJp1T-2" target="7ugx0wIAxtT85yUxJp1T-3" edge="1">
          <mxGeometry width="50" height="50" relative="1" as="geometry">
            <mxPoint x="750" y="180" as="sourcePoint" />
            <mxPoint x="850" y="120" as="targetPoint" />
            <Array as="points">
              <mxPoint x="800" y="180" />
              <mxPoint x="750" y="130" />
            </Array>
          </mxGeometry>
        </mxCell>
        <mxCell id="7ugx0wIAxtT85yUxJp1T-26" value="" style="curved=1;endArrow=classic;html=1;rounded=0;exitX=1;exitY=0.75;exitDx=0;exitDy=0;exitPerimeter=0;entryX=0;entryY=0.5;entryDx=0;entryDy=0;entryPerimeter=0;" parent="1" source="7ugx0wIAxtT85yUxJp1T-2" target="7ugx0wIAxtT85yUxJp1T-4" edge="1">
          <mxGeometry width="50" height="50" relative="1" as="geometry">
            <mxPoint x="740" y="210" as="sourcePoint" />
            <mxPoint x="820" y="310" as="targetPoint" />
            <Array as="points">
              <mxPoint x="790" y="210" />
              <mxPoint x="740" y="260" />
            </Array>
          </mxGeometry>
        </mxCell>
        <mxCell id="7ugx0wIAxtT85yUxJp1T-29" value="" style="endArrow=classic;startArrow=classic;html=1;curved=1;" parent="1" source="7ugx0wIAxtT85yUxJp1T-5" target="7ugx0wIAxtT85yUxJp1T-2" edge="1">
          <mxGeometry width="50" height="50" relative="1" as="geometry">
            <mxPoint x="570" y="290" as="sourcePoint" />
            <mxPoint x="610" y="230" as="targetPoint" />
            <Array as="points">
              <mxPoint x="620" y="280" />
            </Array>
          </mxGeometry>
        </mxCell>
        <mxCell id="7ugx0wIAxtT85yUxJp1T-30" value="" style="endArrow=classic;startArrow=classic;html=1;curved=1;" parent="1" source="7ugx0wIAxtT85yUxJp1T-7" target="7ugx0wIAxtT85yUxJp1T-5" edge="1">
          <mxGeometry width="50" height="50" relative="1" as="geometry">
            <mxPoint x="640" y="490" as="sourcePoint" />
            <mxPoint x="690" y="440" as="targetPoint" />
            <Array as="points">
              <mxPoint x="670" y="450" />
            </Array>
          </mxGeometry>
        </mxCell>
        <mxCell id="7ugx0wIAxtT85yUxJp1T-32" value="" style="endArrow=classic;html=1;exitX=1;exitY=0.5;exitDx=0;exitDy=0;exitPerimeter=0;curved=1;entryX=1;entryY=0.75;entryDx=0;entryDy=0;entryPerimeter=0;dashed=1;" parent="1" source="7ugx0wIAxtT85yUxJp1T-3" target="7ugx0wIAxtT85yUxJp1T-7" edge="1">
          <mxGeometry width="50" height="50" relative="1" as="geometry">
            <mxPoint x="1050" y="210" as="sourcePoint" />
            <mxPoint x="780" y="620" as="targetPoint" />
            <Array as="points">
              <mxPoint x="1120" y="170" />
              <mxPoint x="1120" y="520" />
            </Array>
          </mxGeometry>
        </mxCell>
        <mxCell id="7ugx0wIAxtT85yUxJp1T-34" value="" style="endArrow=classic;html=1;exitX=0.995;exitY=0.995;exitDx=0;exitDy=0;exitPerimeter=0;curved=1;entryX=1;entryY=0.5;entryDx=0;entryDy=0;entryPerimeter=0;dashed=1;" parent="1" source="7ugx0wIAxtT85yUxJp1T-3" target="7ugx0wIAxtT85yUxJp1T-7" edge="1">
          <mxGeometry width="50" height="50" relative="1" as="geometry">
            <mxPoint x="950" y="190" as="sourcePoint" />
            <mxPoint x="1000" y="240" as="targetPoint" />
            <Array as="points">
              <mxPoint x="1160" y="430" />
            </Array>
          </mxGeometry>
        </mxCell>
        <mxCell id="lSrKaYMIX6WWyUWsc2Ek-1" value="&lt;div style=&quot;font-size: 16px;&quot;&gt;&lt;font style=&quot;font-size: 16px;&quot;&gt;&lt;b&gt;Select instance&lt;/b&gt;&lt;/font&gt;&lt;/div&gt;" style="text;strokeColor=none;align=center;fillColor=none;html=1;verticalAlign=middle;whiteSpace=wrap;rounded=0;fontColor=#009900;" vertex="1" parent="1">
          <mxGeometry x="510" y="250" width="150" height="30" as="geometry" />
        </mxCell>
        <mxCell id="lSrKaYMIX6WWyUWsc2Ek-2" value="&lt;font style=&quot;font-size: 16px;&quot;&gt;&lt;b&gt;HTTP&lt;/b&gt;&lt;/font&gt;" style="text;strokeColor=none;align=center;fillColor=none;html=1;verticalAlign=middle;whiteSpace=wrap;rounded=0;fontColor=#009900;" vertex="1" parent="1">
          <mxGeometry x="730" y="175" width="150" height="30" as="geometry" />
        </mxCell>
        <mxCell id="lSrKaYMIX6WWyUWsc2Ek-3" value="&lt;div style=&quot;font-size: 16px;&quot;&gt;&lt;b&gt;Service Lookup&lt;/b&gt;&lt;/div&gt;" style="text;strokeColor=none;align=center;fillColor=none;html=1;verticalAlign=middle;whiteSpace=wrap;rounded=0;fontColor=#009900;" vertex="1" parent="1">
          <mxGeometry x="540" y="450" width="150" height="30" as="geometry" />
        </mxCell>
        <mxCell id="lSrKaYMIX6WWyUWsc2Ek-4" value="&lt;font style=&quot;font-size: 16px;&quot;&gt;&lt;b&gt;Registration&lt;/b&gt;&lt;/font&gt;" style="text;strokeColor=none;align=center;fillColor=none;html=1;verticalAlign=middle;whiteSpace=wrap;rounded=0;fontColor=#009900;" vertex="1" parent="1">
          <mxGeometry x="900" y="440" width="150" height="30" as="geometry" />
        </mxCell>
        <mxCell id="lSrKaYMIX6WWyUWsc2Ek-5" value="&lt;font style=&quot;font-size: 16px;&quot;&gt;&lt;b&gt;Registration&lt;/b&gt;&lt;/font&gt;" style="text;strokeColor=none;align=center;fillColor=none;html=1;verticalAlign=middle;whiteSpace=wrap;rounded=0;fontColor=#009900;" vertex="1" parent="1">
          <mxGeometry x="930" y="520" width="150" height="30" as="geometry" />
        </mxCell>
        <mxCell id="lSrKaYMIX6WWyUWsc2Ek-10" value="&lt;font style=&quot;font-size: 19px;&quot;&gt;&lt;b&gt;Consul Service&lt;/b&gt;&lt;br&gt;&lt;/font&gt;" style="html=1;whiteSpace=wrap;strokeColor=none;fillColor=#CC00CC;labelPosition=center;verticalLabelPosition=middle;verticalAlign=top;align=center;fontSize=12;outlineConnect=0;spacingTop=-6;fontColor=#FFFFFF;sketch=0;shape=mxgraph.sitemap.services;" vertex="1" parent="1">
          <mxGeometry x="100" y="980" width="170" height="110" as="geometry" />
        </mxCell>
        <mxCell id="lSrKaYMIX6WWyUWsc2Ek-14" value="" style="shape=stencil(lZzZsh23DUW/Rq9dnIdnx/kPV1mOVXEsl+xMfx8wqj73cqN7tfWmAezDAQQ2gA1+yN/9/vMPv338kMLvf3z5/PeP//704x8/f8h/+ZDSp19//vjl0x/2pw/5+w/5u58+f/n4ty+f//nrj1///tsPS3L96R+f/7W+8J+v4+IRyhqUwn+//sM8av7/P/z1q/gvn37dxGPYxKP9y0T5vsvnIw+ST3GXL8fsKN92+XZ0nE8W+XF0XG/Lm3wKR4f5pyPMXT4dtZB8G7t8wf203dv3M9WjwffLEeT7/YiR5LvIj6PAfOpRZD7z6PVevp2/fsrncEzYz3bU/fs5HQnl+77/OR89oPyuD7keCedfd33I7Rj4/bTflzzw+/UY8n3bTzgv2/9dvkTcn3qEtMunYybSh7abh1KOCvpQjizzaecNvdHnuetbGUdE+bqfVw3njbiRj/t6a3q4v3Ifaz0t0o182tdb+9FgP+PRd31u4Qhs33Z9buncgUv5cIz9frXXid/I1/18Wz937E5+1+c2jsHy+/x7OG/E3fz3/ezxtDB3+yPydoJwv6LuTzf7APO33a67fMHvv7zbS74eFfStqL/rZmFgPnaa+/73fs7wRr6L/Dg18M5e7fo5TD/RHsp9GeZhwT60Y+7zGQn9tcnv930U1B+T3/V5VLyP/Qj7/g/Tf1iv/a+sd6D/7edpvuBVOAHXpfzQ852m/7DeofdrJvR38/Q+L/l8DMJLQTdoskGxAWPfodmOABYruitpA3BK6Ri7js5+ooTrAQaCdiMxzckQ6Kt6C2wA3WIDneImbcCkXxiqR9NOhrZ1um2dp+u/NlyGXKcOIEuxXKsfAOdgtqVGN4Cm1C8GkPNO82JKEbQ7RzV3dg4drpuhQ1W+cZ799YB6TLlAnR3C0IhgvmzatUcIGjLZAFINQ3DRXVHyISWfIdVrQGEQWNVq24BCa+in9r8bQLDOUFxoOoD8jsG46AZEOLhaTlz8fg0U2TSF1muXQL2rt8UVr6hBv150wASwadhP0JGpRgb1buViAIZD7cIYk7a2oYB2MoA0/NfcAPLoBujUhT4MsHN1V5RUwyBXcb9AQbJhKMkizBeOuPbSBnqLbusA1TAUNZ3VoDzCyEdzBxdAvQ0XRVEN01b6haZQeHIoaEhqyKIzelGDUhIMGpihCzRf2PQdWqKTXv+9n/SYCD+ni+9sknTjbIlFAO4L8l4PsHhCBlSM8KZLERgkznDjlm7KojNeUXOBQYIAw2hgjG2AgJPxihOvB0xNY/V5AqK7AdXFPYPOYZ7H9C6wokByrUGmVM47eDdAQ8+MF2ihVJlSxNhzmd5dvdtkXWoKsNpAI/CGLF4DGGvYgChTKnxwTS2fOTEKgGxAkQzPZOVrmqKt/Sg8JblxtWI4sJzsbowrJ82W6ZVfCJglXKZ3P4cyOIwraoxLw7zrskv7GkrBKMssX97XYLCRIJy3rSWiuX+LhF8DArusqebewHWj4Hi47Cs79uGuqOH9Rn66KwzNdh/Yi859l3I6PffdAMnIP2TM1wApWZgtfPgFyeH3pylJOGChIN0H2yVB96lgltoGiG1diVlQPhtQdsu3Clv8C00KQROTCDZAENmK4Ulbx7nrrwHtdDF3AyR+iBXjaRsgxY5YTmt7C7D2bY2ZcevQCGVlaxjCRZlSwPywbavs0jwjkDvdi5LgQ+9g2EhuwyvDdoejpWDWTzt4B9QlkdM43zgVjFUMBAy1CLQqePu7W29B37aiKymw4XotfBP3nFBHDYCIG4l4vs2db0R80bImfF/x5bV81P0Jp+u9Duqn7k84Lc21fNfgM6AtNegh+xMwBVCzArCI9bUa1WdGrhc7/UxoR0vXWIH1obj1Js6G5TO79k4/4XxXMkw8ONZPDXJ0AVKY3s7TITV0riv9p9+noDm7gndB+2lwQwok9Ux23yU8pQBQMZmSoxa0Ksa/Zr4l/uUc2DKv+n0C7+vnVZ4iTTt+yeLV84Leps3VPlNwbahh6nwIYRpoKKoPg6oj/UJ/qBJRFROwfsbX597pP83H5TcygpqYlBCQMU4xfOHl4XwNXog+8H13eQSeztDyZsbb2DVg5+Ja1zRiRq6TS1PyUVVFuAVrJ9UrGsHbohtZkNeVTy1/E+9I83BWKpMV0VpXQ5CXziv9DrPh16W+wiXipBXTh+qkq1hjCjO6VNsT30TyyBhiR5fjRbQWFQzOczE34rLvkYvh0WGdgCoctK71KK/xU8AbFVyVF7F4UK7YRFMflEo3MTt4IU5qdjEZwr0XS6WwwO0kV7PdQXH21+nBfOCcippNjIovlJgQzsUVYYKSFgUxHogK/ybayahZPU4QR027v9E7buSVjRswGohKtFgXEL4fztj9T34/qJ1/mH9QtiBvT/C7SVypixtIpjg49gMqzjeLC/NhYErOXdhx/tzdQUlFCFmLQX3aEylSYsiOmeao7Jz2cKW0PsDUnBOyvQsw0NtHFSfblPRUC6Z/ks/+EO8iK1uUkz/Fx8oNuYpTsTOFatVH7siG0CJLxkCt61L5693PnWiKQ92fiVN1RS1B5qDrImhJ5NBc18KDfPJBGrq07KMiUjMLGrvKU3Y+vmgt7wId2p+uFCguMlpQrdUwDvId26hg0LhMiMrT/NOrEPwuKUNJk6p+uSJK94FjRXOcXLmdOZwr6VN0vZxUimp3iFWRi9rYgv4hN71fBcFrdvSzh6aa6Y0JnW8JmiTKGECWpPXgjEml4u5jwkCjVK1CJowFimNJJyxalqHWM6KjqM7/R0TgNWvuIWBRZ/VkJJGnJGDt6lu4CeEq6U/5hBbP6v47eSpyuK6swE1NzRcJkDQ/FMhGdo5B7VtiEnxyXWJoHxaTxiXl6ftdObMF6/x9qj5U9F/DJbUb102zFikbrndUjYM6V6+bntdAzDn6mRn4c7H/cHAmBp7Q1Pr7qvuCxRpT0+yrskxbOpWOu2rXD+QPGVCfyB9yKSNTWW2AeJnIXPAx1OzG+cQWERyUIjLx/EEnbu9YBBbHtEDyR1eomF4M97sBEn09BHcXXA7OJa0BnvHCU5LEeOYmuUX+EHvEqXQ7acnp5ork8XXjJPh5MBlTTUAe2PgzXfYhT6RmzKjcpvIKK64HJEcl4FrtdLX4Upjg6LtRG97p6RoRDJpQ7D+dZa0BG0Km41vUxDw556sWm5AW3V1Lasfcy3Q9cPXhpB0DbHEu6eCaamvjZor1C+IQ29MAYU+1gRDJdkkcSntgag/VpR6x0j6Ha43kqH1Ril0vKKrGdM2sDXFYDOGivZPKq3NqBrWzcV2L2LdpBMTytk1FCk7MCJnOowzOtSyKsPRgco17uiZYA1xUppquy2vxNonxm/RCLHIek1/FuE4OAabjUa1GT3LULoZ/6PT0VLy1DUwc1X4NbguzXdc2mIo0Z1MEbRZqmEIc7jmNN0789YCgkdJqFqL+3KGh4eyYW1hXuOgA6rbrxZ10R/W+bHgiJ7fCN9+TSPHncPFDZxaf8yizI3Zo5eIXqBRrHko8yvIx1NoWLhqeyHxXx7yZTL2szVFTmYVQi7tx7CBWE2PSAaQaNbj78NCI6bzi+gUa0Nx7QExQMoinxdmK52Ag0m8rVeVKcGaGUWIern27Y/47u1dpFprgtmFBujaAAursMkSrk5l5dNomORElJhf52QB86aQ6RsBE27oaxLV6zHmxlSas7ieoUDAvtonuaHStapOLsLFpavUNEV0PqJp3WK39xGDLjgvBTyjF5E6ucxU/fmODawyK4WZjlKikwFmRz+FSLfMhnnZ2L2E3n39FI+Jl6O7Bh4AxmX/FZCAodn12gyvWTQ/s4VUS1wO3Xj1hefeqCiXQ3atUIz688qX4OWBBpSp9r/OdcSRUC3uIeeHwfG9Ik0lK0u3s+pP2Rq9ID3kv4qE6Ez8d6Xxl1JEaps2sEfFa0Ff61qtLKC8B1XrVCekgUq9p/YEPooTLgvoQ1J6sV6+Q1yQZw/bEa5K2psqvKHmSR32ggCrlJGGBOasXW6+aobw2cw5+F0UjO4N5TO4VTLdefQP7UxRKFLbnrh5U+BXJqvqfOdFeNZjIg7uI1F9k7qZt+urk46uBEpVmLoA1hfk5YTLYUb0NbxK6dHnXRYzD85X7m8bDK2gSm6WOlZR00VBKyb6k/uupy0FJmOuGEuhT+//2Lt2dvRIe48DzdQ+/RH5F0vMeuQvQsXcjp+AcTzJGfPXQ40l8nOSCV0lo44r5iJvvCLkPa9XJELXL51YwXAi+MvuNvGkWH24yeExTN5LC4AtWNrXaRfcyHCbOHDf4iTf9je8SP4jbH96eQP7p0y+/fH1B+f3/65PJ9k9fn1vO3/8P);lineShape=1;" vertex="1" parent="1">
          <mxGeometry x="332.99732523337576" y="1029.9988114422854" width="502.5423075565459" height="606.7924018681335" as="geometry" />
        </mxCell>
        <mxCell id="lSrKaYMIX6WWyUWsc2Ek-15" value="&lt;b&gt;&lt;font style=&quot;font-size: 19px;&quot;&gt;MyService&lt;font style=&quot;font-size: 19px;&quot;&gt;&lt;br&gt;&lt;/font&gt;&lt;/font&gt;&lt;/b&gt;" style="html=1;whiteSpace=wrap;strokeColor=none;fillColor=#6600CC;labelPosition=center;verticalLabelPosition=middle;verticalAlign=top;align=center;fontSize=12;outlineConnect=0;spacingTop=-6;fontColor=#FFFFFF;sketch=0;shape=mxgraph.sitemap.services;" vertex="1" parent="1">
          <mxGeometry x="640" y="870" width="170" height="110" as="geometry" />
        </mxCell>
        <mxCell id="lSrKaYMIX6WWyUWsc2Ek-17" value="" style="shape=stencil(rVjLbhsxDPwaXwlJ1POcpv8RIE5j1LUDJ339fbk1tLZmvWMU6M3e1awoDjkktdGH99ent+0muPeP0/Hr9ufu+eN1o582IewOr9vT7sN+bfRxow8vx9P2y+n4/fB8/v/2NK2cfn07/pi+8OuMa1VSmFDB/Z6fxPb3yeczYL87XAOKNB0BQVwigCTZD4CaJDgCUPFxAJQmiZhUm8QyAoLkQABRahoAmZtkBmgdAKmKYwA7AwCCBF0H5Cw68hBLN/ImIDXJo5dikkpMSmaSQ0AkJpkBqmiSJztE8/ro1uQk+nWAVgyNZMwQ4jT1UJsBjQO8NGDadqjrgNA6TTOgiSdnCBkPXbxU4tYQxTeM1hoJwEupCAh5HeAtHyCBnCSygzemRx5ykUy85JOkgm5lXvKxW3xFXCPEeRUFppMUduggZXRrmrlfA3jIuNwD/jbAo1ujpynqHea0WgIVoksoS2o2EosKft+eeMJzkjYGUtCua7cTuufWvN6JIxyo5JFkn6kOB3SocVKJ0DsUpCyBuNOh4HGRd13RZ3qpxDuUIgtAakwYl/uuGyvLIcEcjX6HzLouMrcjswv/ZTk7qu+sXJYHJokScHkhxgQsAuYZurw68DurAAFzylhlYitlDMnUeVtZnkZjTEKIIy2doVaIozSVAMupjKPGmojTAK74dZ5NkKy5h+ha8oHgSyJSYwEIYkw7h8VypcLq+ttLzDj69Yi56ogMu17vL/GunCbMVccqIUakozET8KimJEQ4LIAx+fT/LVepGASZLLdcG1m1HoHQlLEcWNPAzmrlctQlK0+s3FTU4Du+9MuSkO51FHmUD+VSaQd045HVspC1ICoNepZAtdsatQhVsPTEXwO00Us2aEQWzwkHl1RoVzE1EdCdOt6dVuQhK28FbYiAdtb2ZD38cqyoNOenqjOG9jRWsLKVcYDM86R+G1B7bF6dgamWLspF9nQO0YhdQzIvEdW18c7DeOclsYkz4BxiLXkjO0wD6ZjSUWk+TEMwzLS+a9TamA1jxZRAxEuXyJkBkWpk0QWg0o6mNGz2bGouxK01LULjzpWN653AVbSy6t0iZlzJtIlrWcooMzV0WbgNaD2/5trgqHi3hZda6cVrRb0XA8B01/VvW9R+E7UK8AhohDkDVAA0WlHsda4IYHOGvcb7v0YvSJZEXDluDQGt4F1EXTi2cbIr9rLTsUnSGWDpJybg0z3pgut2BxAQQC9W7wPsx+Ue92W335+vga/f472vPTrfGevjHw==);lineShape=1;" vertex="1" parent="1">
          <mxGeometry x="210.75460481095115" y="1104.931702437172" width="188.66699418716553" height="70.48008971245281" as="geometry" />
        </mxCell>
        <mxCell id="lSrKaYMIX6WWyUWsc2Ek-18" value="" style="shape=stencil(lZZNctswDIVPoy2GJAj+rNP0HpmJU2vq2hnHaZvbB65K1YSkN/VOlvyRAB7wyIEf3vZPr7shuLfL+fR992t8vuwH/jKEMB73u/N40aeBHwd+eDmdd9/Op/fj8/T79en6z+vTj9PP6wq/Jy4JlXClgvuY3nhHUv68+ToBh/F4A2RP3ndAEAoJAJVq7YCoS4AdSqHSA5KJ8zbgnSPnOqJoTLxNVN2Ce6BSqgBgKn3W+iajJIRi7IFMDiSRI6VeiFophG0gBYrFKDfXYZUQR6HYLThuA6yfvU0igDKxo9wLUSM5AGjv/FV2BjQHAYAK0QNa6eQBkIhTD3hYVw6t/xuQc1tiFdB2NiGplhGEJEzBAKHVbV1qWYSk4gNAI5ZeuMwkQOmSbX/nBHupSgtgBioJGjn9bGZUJwgorUAywhUonIZUTHvPI7JlNCI9oEkj7ysUe9tQI0mgrCmR9FamWVU0otG2hgIZJB1DK+JNSB61tzafMSbs3zpA2QCeIgKYqjHXTB4kvQ6AAfKpRdyA5GEv+YXzRWnWtl7WNi3zIadVBT62OIA8w9Zb/h+fup5qfzhkykACtcS+oAKj182NAEwO9JBf2IsnBtFrOc0VwBEDudSCTbr4YIuOityxfizEfEf8OpXV2foAr0vabs7UPyB/1wEw7ksZ3BXuvrT9B6AP/+6IL+PhMF0xb7/bO6W+mu6j/PgJ);lineShape=1;" vertex="1" parent="1">
          <mxGeometry x="209.79794832980838" y="1103.7818307030204" width="6.6906885378925836" height="18.440283622411016" as="geometry" />
        </mxCell>
        <mxCell id="lSrKaYMIX6WWyUWsc2Ek-19" value="" style="shape=stencil(lVbLctswDPwaXTEEQfBxTtP/yEyc2lPXzjhO2/x94KpSBKraTm4ShRUB7GLJQe5e9g/PuyGGl+vl/H336/B43Q/yZYjxcNrvLoerPQ1yP8jd0/my+3Y5v54ex/fnh1vk7enH+eftD79HHCfK+YaK4e3vCon+Wfg6xh8Pp0V8VOLg4itVEC+VOPr/Z+K0DdBAtThAjMRtG5ATqQdIIInbgFKp+ZSS1czbgGYJqAOoEFcA0L6pWkgKAFSK1QGyUEKARsWnVALkwQDN82ZtKIAHS6n4LtVMEgDAPicHsL6VDABCwafUCiVAXG0UfNFWVQXE1USNe0AGba1MgfuUAtJSmUpcFM0CAErazY+toB0SJb+D7VmB+AzQpWTSCKBLxYjzgGzEoRpa7wGaMQ+Rspe3RqpAGia14rWkjMU3q3+xQwSu0VauoQqLNiGo+C4xRSTvRsl3KVdYA4fQD4RRw8iY2pTBLCaZ3HOriNhNUKCCnCxR7GY0T+RvEZFWI4eIMKo761v0YUtNXdXmVYym+rMAIyqvhlRAm0z/0jxzaZL8PwEpTQnM4lA4EcIrvVY41XbMNp9SMncFKeXe76XBc3flS2ImAAYoknbxQooKmHx0vgc0eDqEnmTLsID8V8PG8xG5Ed+5JCsFcIDOd4oPXcP+myP6/mcYnqa5ndsJx8yOsW7KKCB7JPXiwSPJsZdzgL//7K3z//H28HHFfTocj+MNefm9vxLb0nidlvt3);lineShape=1;" vertex="1" parent="1">
          <mxGeometry x="210.77344075907808" y="1101.7848186108522" width="20.826583076518318" height="10.927336322648216" as="geometry" />
        </mxCell>
        <mxCell id="lSrKaYMIX6WWyUWsc2Ek-21" value="" style="shape=stencil(lVjbUlsxDPyavGpkyxf5mdL/YIZQMk0JE+jt76vTjE9iOVmGt0PYtS1Zl5U3cvf2/PC63UR+ez8evm9/7x7fnzfyZRPj7uV5e9y929dG7jdy93Q4br8dDz9fHk9/vz4syOXrx+HXssKfE681arqwIv89/RKo8v8fvp7w+93LiA9twFfKEeCVRMb1E0kBhEq1joRGgnaoxHkgxEwR7VAojDtIoIIIidQRlHICBCEenZoSNURgyiMhB2iDTkbnQhXsoJFktKGY0cCttZCGkZApB0BgKmkkKCVgQxHv1rq64SrBTFQeCaEHy1VCalRHG2qkiAiRqk4EkA5SpnQIpMAGYZ8PRijArdEiZ9ohA7dGphA8oQEbQiYVb3TNgBApjMFXE3ED4U08Rka1LcEGpZeUFV+pCbg2HxfKFNEldI+v+AjjKJKO51erMOjOSEb/aIP1IlIa17cC0kBuWnkZE8dqYAT+Fwri8Q2EkPjiYlUc1YrYb3PFtw/8kyd8gf53BXvpWsCfVhXKhAf+Cb42Gl5BvAXi6PEJnJ+n8yg1EP/cvX2BF+BP9vFs91uAf+w8bv0C/cM9Wi7wCfo/No9niC9j1W25Z9yNeOA24VFJpKTTeYC90dcTw6PWJ1M81C4AbuXjhK8g3mSy1zorzK/m8t0qMFg/dvlzgc8QL+zxCuJ/7T+rpGMmRi2JUvMbNGBwmApcg02VfUFfZC1MmDIVROSgz+PZOTRB/3C/zhUfYICyb9iqHyS8SxgtsMGEaX2BSs5ElWuodiOw4XlZpl3kXFeK/n5NcCCFr74hVTs/is8wSSY8QpjGchFRsURZrngklIZzPvsYMgKDpFyUaPWEgC6h+FtbjgS8tKjp5gkV2GB63Y8QrS9xayIok5dQoNrMkd2RtNeOW1NNHGt1KdCtNjd5gkAxpKucX0e5BoPPctG1m5xgddR1gF7HUVyvrZqU0UtJMEF6bK4TcoUXZ/XNtRybwQN6d8h+JjDVX/GUH8cjBYUiwQh1jKUgUAVa03ZDe4Gq7izizk8t0GTDj+tzL4O38K5rMoyjRdQnh0fDseE1Ojw8f/NxajUNhOkyNIjH4/XThEfnb14mr7l9C+9eohiq3kUEef+jardoGvfSBVXahWg6E+BT2uff9j7A28f5IfFpt9+f3iEv/+8fHu2n06Ol3P8D);lineShape=1;" vertex="1" parent="1">
          <mxGeometry x="552.45" y="980" width="167.55" height="128.13" as="geometry" />
        </mxCell>
        <mxCell id="lSrKaYMIX6WWyUWsc2Ek-27" value="" style="shape=stencil(lVbLctswDPwaXTEEQILEOU3/IzNxak1dO+O4r78vVI1ig5aQ9ibTWDwWC5ADP7ztn153A6W3y/n0dfdzfL7sB/40EI3H/e48Xuxr4MeBH15O592X8+n78Xn+/fo0WU5f304/Jg+/ZlytoGVCUfo9n6hATn9PPs+Aw3i8AQhBUQdoCFK3AZlAmwNIBszbAGIo2QFyBdQgAhA7e2qAZdseIXv/FrHKtn2CJM4eGwhF9uT9IwMF/hHU+2+Lg1XzAqmjB1LAjgJ22YfeLdfm+2vlB3owLmru7HOQjnGNXg4EEpBDArV6+QC1wN7qJV9vWgS4BVBfMErYLgOQBxilJZgAqpC6kgU4EKhxJOgAnAAxaIL2I8C0iHwdkCF3ETiMoCC5D5CCEgrkbiYVOCIVyHfNPDBHM8Z+bU0nQZffRfzeZBujwD/2+Si0wNyGxnfYsg/or1B9NkZmsFCQFslfZ4wi+7os2Ks9BtlbtdX7x3AhWnVd/hk08l9A9D/s7cpAr05LqAVLRSxfD8hpWRurgGZ68Ful6DIR6/o3QXtA/WDtVhA/AdU2WVC03i3qapoLumCA/t5g4GhLpLspaPJRCPIhNIVjaVU3H0E5vA6MV/HSs/cHBoNs/lL3YImvS8u4ByiUoIaJEw+4IW4dYfv6LoQEnTD5CfVFROtr9ZnGAa//8K6zj+ur8GU8HOZH5e3//SvSjuYXKD/+AQ==);lineShape=1;" vertex="1" parent="1">
          <mxGeometry x="542.1057460324341" y="1096.6217743847074" width="16.024066079283784" height="14.52085572944884" as="geometry" />
        </mxCell>
        <mxCell id="lSrKaYMIX6WWyUWsc2Ek-28" value="" style="shape=stencil(hVZBctswDHyNrhiQAEnwnKb/yEycWlPXzjhO2/w+UDVSDdhCbrS8IADuLsiBHt72T6+7IePb5Xz6ufszPl/2A30bch6P+915vOhqoMeBHl5O592P8+n9+Dz/fn2akNPq1+n3tMPfOY4h8RSU8WP+0AQI/335PuMP4/EKnxpwMwG1Asp2ADE0MQEs0Mp2AFcQm4Ey9LYdUDOg7aFDChLUAiUZfAFM2/iGULLBJ+gc4CuUYvAIuW7jRdurDp+C/aUDdldP6dv4zgujKwMLh/fxAkgGLzG+Q7f7J4IUSEIDmguQpaX7ASo6q6GcoQWUdQK2kshKCgVnqgVYjicRBU1LgmZJIASKVFGA0WfoQUm1e5nmFvtAneaaZqgBDzVBdSVpDwEPFYFtSUm9FEhbM2QnVYQaZdB5ZL1Qlx3u42XRwdoCSA5YYD++tJ5gVgiCkMNjMB6lQfL4aFb07OsnoMhrFbp1QluG35bVirNaChlLuDa4RtSvxgXblnUe5agmuTGnBgROaN0fkl4hKbB/pcWKV5cUB05gXm6AdeTR4r77txp6YfcSnpLylO2A0aFWgwwqhGKZVi6jayEp1c0H9EDb6l129xrG6lbt0E2KyJ7aYvNNS6A+9jetnmoL9s+QrFZ18OegAbw5IuUxOKIbL0z+Dvd3VlAZRTM+gVidSjwu7r3WovP/+nWni/9Pw5fxcJhfltf/+6ekfpqfofT4CQ==);lineShape=1;" vertex="1" parent="1">
          <mxGeometry x="553.8044789305513" y="1094.5381004090962" width="12.754185254001868" height="16.64573207431181" as="geometry" />
        </mxCell>
        <mxCell id="lSrKaYMIX6WWyUWsc2Ek-30" value="&lt;font style=&quot;font-size: 20px;&quot;&gt;&lt;b&gt;Service Lookup&lt;br&gt;&lt;/b&gt;&lt;/font&gt;" style="html=1;whiteSpace=wrap;strokeColor=none;fillColor=#FF8000;labelPosition=center;verticalLabelPosition=middle;verticalAlign=top;align=center;fontSize=12;outlineConnect=0;spacingTop=-6;fontColor=#FFFFFF;sketch=0;shape=mxgraph.sitemap.services;" vertex="1" parent="1">
          <mxGeometry x="425.03" y="1122.22" width="240" height="130" as="geometry" />
        </mxCell>
        <mxCell id="lSrKaYMIX6WWyUWsc2Ek-31" value="&lt;font style=&quot;font-size: 20px;&quot;&gt;&lt;b&gt;Service Selection&lt;br&gt;&lt;/b&gt;&lt;/font&gt;" style="html=1;whiteSpace=wrap;strokeColor=none;fillColor=#009900;labelPosition=center;verticalLabelPosition=middle;verticalAlign=top;align=center;fontSize=12;outlineConnect=0;spacingTop=-6;fontColor=#FFFFFF;sketch=0;shape=mxgraph.sitemap.services;" vertex="1" parent="1">
          <mxGeometry x="515.4300000000001" y="1370" width="240" height="130" as="geometry" />
        </mxCell>
        <mxCell id="lSrKaYMIX6WWyUWsc2Ek-32" value="" style="shape=stencil(lVjZctswDPwav2JAghee0/Q/MhOn8dSNM056/X2heiibkLWJ3xwFK+JcLLWRu7fnh9ftJvLb+/Hwfft79/j+vJEvmxh3L8/b4+7dfm3kfiN3T4fj9tvx8PPl8fT368NkOf36cfg1veHPCRcpyASK/Pf0gIn5/4OvJ/P97uXCPAQSb99k3X56nQ72gVoG9plSGewjSVm3l0A1DvapH3jdvlKrg32lCvxPQjGN/keqDQAKlTwCGmV0QqMyRmAhpAoASm1MqTDVtA7IgXiMwbLAIKk5do/npEovy3VA8kFbVA25VKm0AWBnJlC3YnXmEZApBAAovUwzoFIGnVcjlfGEwjBL1eo6nlAsbwDQEmV3QqaKAEp1TGtRUhCDSh+uubsTbG8tC4BCl1QpjM3XrA5gHgLPhNIRGikin5RSGAENcoABYvYARSfYv90JdiYGJPGACtpVjWaKByhIkwF8DB8Aip+gj1wqFPmmoPMiBssbGGoDFPUAAUxmgOrSamyMAZo9IEYYtIzUZ0/gCWURdIHUZw6k7AGCe4kXgARWrgEcMU21R3VQz/fmJCPaUJLoARk1n3WOAzQKeESdbDBAxS75GGzKUeGWWdI+Iat1WI4oKtyi0hfc9tlm0i4/PtuuSvm2gTCCRgOxHLkGl9aVoa6k2KUbARa0iyF2SbR6wpjWVnC7CmW3tAIO2hTTSK61kKJNXb1imuQEkCctUnNawBQTANTqF2+Z+fk6IHhlX7CIs/c5YjIBpGCjZGOBsVtz62p5TSY6sT49wcpVnIhjKO9NG4dR3qcExUaqXsSZNi7ohNJX2gwIcI2m7F2yOw68EEjvzRnAMK2J+0qbiSlTRJem3KXFmcngpcYuGG7iKtxAFiGPhS59oK6LRPWckUlAEewW6t5v0hoMT+ijNdcMjk7wLCxQM7BXkwLJhfs15GyOFhv3Up4vxAp2DnvmivAyuRDnkRgkkv1WNh4FfcCes4yToO+OT7hf+lbMqzpzQU3m9a95BxRI8C3Pveeut/xt31E+NLcf5082T7v9/vTF5/L//hOPPTp9HpL7fw==);lineShape=1;" vertex="1" parent="1">
          <mxGeometry x="514.498098901402" y="1282.5019798768146" width="76.21890805745375" height="77.62644211408337" as="geometry" />
        </mxCell>
        <mxCell id="lSrKaYMIX6WWyUWsc2Ek-33" value="" style="shape=stencil(lVbZbtswEPwavS7I5bnPSfofAeLUQlw7cJwef99VBSnZtTVo3iRqRuTMXhzS3dv+8XU3cHi7nE8vu1/j02U/pPuBeTzud+fxok9DehjS3fPpvPt+Pr0fn+b318cJOT39OP2c/vB75rVOEicWhz/zilTq+d/Kt5lwGI+fCJWpJkPoTFy3CTlSs4SaSMI2gSP1bgg5L3veJCQq1eA5U4vb+EhBLD5QBZIDhWDwsZA0hM/W0hgpdiB48W81iBr4faFk7Uk0vW3BhTIbeFjsvW2OBqc7fADRit27r2YisUzNuskw31SueHdQunEjsdGNgYoAggqwgjW8qcAdqiVMFoGATRFrPkEZaY6+KHXPDCogtiWBV4JQQlFLFNgTKrBVTbJFrCsZaNaKLRZfqANT45LyK54pgDQKxK4m25KHG/jo8JqH8DzZZlGnCOWytVMXwOn7VUehgqLFlG14VQ4oefUiNIdHx5nU+vOgBqfqXI0VCqDh3sQDvToy6lXBBFAwRZZgrv4n2CWa+PzXucZAghRfAK3CmEnzc1JHbQdHEqHoBmuEnVQJ4gg691BrD1eTrK/dcmuLZG2SuJxyS7XYTJUMU0N99YRKGdmUlk64EjolkBsS/IBSVQUQ1JPsJwiegeq7m/i6BQpdv2ovKqICm758TfsPgj583Aqfx8NhvlR+/u5vkbo030DTw18=);lineShape=1;" vertex="1" parent="1">
          <mxGeometry x="572.5753481532502" y="1347.189987627105" width="16.53852456318691" height="15.93390915726377" as="geometry" />
        </mxCell>
        <mxCell id="lSrKaYMIX6WWyUWsc2Ek-34" value="" style="shape=stencil(lVbZbttADPwavRK75B7c5zT9jwBxaqNuHDju9felIKxqrq0J8ibLM1oes0NO8vC+f3rbTRzeL+fT993vw/NlP8mXifnwut+dDxd7muRxkoeX03n37Xz6+fq8/H57mpHz04/Tr/kLfxYek8aZxOHv8kIjheXN1wV/PLxe4WOh6AmlEMs2gRMVT8iFEm8TRCiKI6RCWrcJiSmqI0glCduEHCl5AitFQCj2veQI0YIEISkTF0+g3AA+U/NFCsQgIG1UdcBHUNMmlOoQj2SAL1SCLylVkG9TUl+g2mVyH9+oZR+PyS5BgrInZIqIoJSGE5QaSqF03a+iMF2hGjFVr1OTuoCboBaAFwVnYqyK4a7ZCQ2dYCobThBi3SZUper7bELKQEi1jH5hhtBAH+qNX0TuWt8iFJ+DaQu0wVJIg79QREWN/eauKZOAjNX8ywsJV8i6nNqAD+Aqm4x4xCvC5zEehvWxi8BjfRqyCrMWj29UQD1jWPO7MscKRGcnhMFNK1XsRm24aRH22OxOfU1n/wIX59MEM/jqCRJh22xKFm9gKcMTko59LgInswWQfB/mUQ46bYZY/BCxQksBhHIjDYUWGdMYkvVekJhin/SrNMIH16f729UJDeRQxsFpeAb4RHnIoPbRdX/d6XP+qqZotYi9gCte+qS7i7e9wBeoRWLgvzeX0/wpAxWFvhes+NyVvhG/DPujTRxYn8/tmx/j7eH/cvtyOB6X3fj6/3EZtlfLIi2P/wA=);lineShape=1;" vertex="1" parent="1">
          <mxGeometry x="584.8293459616066" y="1344.071677852054" width="20.201102776761218" height="19.087257570947713" as="geometry" />
        </mxCell>
        <mxCell id="lSrKaYMIX6WWyUWsc2Ek-35" value="" style="shape=stencil(lVrbbls5DPwavxLUXXrutv9RoOnG2GxSpOnt75daQ8dHc+Qx8uamQ0ukhiOS8il8+P74+dvDyev3t9eXfx5+nb+8PZ7CXyfvz8+PD6/nN/t0Ch9P4cPXl9eHv19ffjx/ufz72+eO7J/+ffnZv+H3xU6l1m7k9c/lDzVLyv//5dMF/3R+3uGj+DbjiyR3G1+lpRlfpfrbeOclu9mgSU3EoIjOO2pOHPHAe/FlNrA1IzGoorMPzaJAfAhRNM4GSXIjQVUJ8ym0Ik6JQZYCPlRxZIUUJIJBG5tcGmQVDWjADjpnCf5gUG4bFC/BoYEnPpSCXDKncyDc89IchjWRsBqXPTidpJEtNZUCKxg1KjEIEoAaFgayJdtAAKdVHHG65UPGlUGWtYExByQg8RUsgyFFPTcwqulkUBpNUVuh5dnA2MV9gJMuRni+Qp3Poeg4mVsGZaZ3LjSBzCDNTucgmQiZGXgwUPHcB52dTne2ZOyfpdJkgSWQcanO5xAbzwfTudkHU6rA8yHPGRctaVk+qLSZraFJJFvq7AeDTNlaLYPnsIZNR9YGxpw5rN6iRFYwMgOXfBlauDYIKJV2D1cmlaYRsIKXRLZkZI6wgkpkBhHPwVV+P3ipMzVcppWAsb/MQuYSzYd0yGkXhlKtDfLBBy+RkC+ZMMIKVmuwFQKG1W336trAIVtNO4nwJTslUHvxRGQsf+E64TdirCMgmyiNIK/xWzV4xXuGz5JnhTEFIaSISSroBRUkwysoGNWjGLESC4O2a3zAQiyM6vIW3kNi8u/3UjLgAyvPPWqRG1fpGu+kFsCzi9bwbsYr548bWnvF3/v+BnjKZ4f1lI4UvYVPGfB6Jz64fyUJb/EH4dVR+9zCg0BwfTB8Tugv//6K8fEc3w7nxfLR8Pj9kcXfj2Zuxx/O51wBnzk+4n4K34/D/bBiufMB+XMHn3D/hcXTjfTe+cv5DEWjxZPjD/kY+X4c7of1aH0/6K9jeuskIl45vhzykfNT35mP4ZCP/PsP58vu667nh/hwPjfcD+sv340PQ46veFbrGh7ua8f5EzG/NoG8hU8B8Inpf8LWMnD9TKj/gQ4prD5xWD+w5sHwtQGe6k9BfUv8fqyYL3xA0es9rN8yK1gV9aTQesbqVRimVZpfyWODyMeBKY7y8VoPFzbn2sKxK7hZp2QtMwi69QB0ktZw5GNdRiYuZzcq2l0fo4TTfU4AbQk/tJwORVyl/WSuOMXtMkGOwfpJCKv3vGONWCdaImQ2DSwopH4b7K677gPzOjWID32qNZ+D9fWFDQIqnnQwdrEplMNiKDRarbeIw+7I24GWV/MV4nQ70LtPcPgUajEjIifdh3tzWPsUik8DF3MutqW2mqSxOVdbzer4lhbTQG7Q5hXuzRvbaqJJDJzqamjKRmltNZZldG14t1mKMBUwMoHXtVBxNbqCzjRejlwfVnbjcTZVspTDd41IG4p6SIjGM6iGxdtMJT6UevCBP7UUP0qonQFTsv7UAqM05WWtXVroNR9RWtLDo4AZRFaIZRw8XJVkaRAOKWRxjSSuIWBpaCfHau3raGvPDbIlq2ULGAQaVruXcQVHx6xWW+Crmo4npzX7sB2sjfbvYbwz7jKUjdO3F4YNn+kVp1jOdzzZ/9YN7fAseRQvk47n36+IZ/244pNJxxN9URwf1kznD4rtdeWlm+KDY39+p/sPh/izfl+xXeh4Ii2KtepdfDnuh57X+35ucB9vH66/bfh6fnq6/DRi///4Wwj70+V3FOHjfw==);lineShape=1;" vertex="1" parent="1">
          <mxGeometry x="659.5854959865028" y="993.047204718775" width="248.94750339008579" height="584.292634429642" as="geometry" />
        </mxCell>
        <mxCell id="lSrKaYMIX6WWyUWsc2Ek-39" value="" style="shape=stencil(lVbLbttADPwaXYnlcp/nNP2PAHFqo64dOE4ff1+qghSTlgbNTV5zdskhh+QgD2/7p9fdEMPb9XL+vvt1eL7uB/kyxHg47XeXw1W/Bnkc5OHlfNl9u5zfT8/T79en0XL8+nH+Od7we8L1Rq2OqBj+TCccSMq/k68T4Hg43QBaoh4MIAqlsA2omdi+IJUYAQIVMYDUqQGXSqdoX8idUoIAiQZQI4UIAEzRBt0jcdsG5EqlWIDSAFzK7F3qlXLfBqRILVnAQsMqQISYXaYDBZAITSxn/0TlbQCn+b4F0CgJ4JWKC7qQAI+Yarf2QhncH+78CZRAnpmSDbhViiAJmXqz9okSyAErozbgFilmkAItM6uFFmbBrmdZCzl7QAKVmpiaA/BcKOsxB8rsYyiIpHoXdKYAYijhjtY6n2zJs7i6YKy2Pqt3AaRZ4esAmQv/plIbSFzKntax0wJapcxKuREbynRcA3RU3Opx9y511OqpuQcqBZBooXBHagakBoqugzFUj84FV3iNBFD6WXudfME6NI4iQBBHz1BuUGxjCqxLqeIk67S1L2gbj6DjiTpgk8yNKgConLtVZ4YtVZWQLEkyN+Ut9UcbcoQttWgDc2MKtqOiY9IKTfcX4H9dJsaHPRqCtVNuzp7B/drbpDh7NDN1Ijl/GNsnPwMX2a3bV7+v6QWgS2gTKXaZKpSRBsLdkMUa+PTG+R8A/fhYcF8Ox+O0H9/+7xdiPZqWaXn8Cw==);lineShape=1;" vertex="1" parent="1">
          <mxGeometry x="756.4749681352496" y="992.8110689341709" width="8.712362801612016" height="27.5455682623724" as="geometry" />
        </mxCell>
        <mxCell id="lSrKaYMIX6WWyUWsc2Ek-40" value="" style="shape=stencil(lVbLctswDPwaXXdIgs9zmv5HZuLUmrp2xnHb5O8LVUMpQCV4epNprCAAi+UO9PB2fHo9DMG93a6X74ff4/PtONCXIYTxfDxcxxs/DfQ40MPL5Xr4dr38PD/Pv1+fpsjp6cfl1/SG9xnXkOoECu5jPnAI7u/B1zn8NJ4/hYeAlEV8Qqz78dRATsT7gJz3AbEikgRUBNoH5IQSBYAcYtwHVI/kBSBGUNsHtAQfZM0NuRiAgiQBmVCtDK03fQFwhrQP8M7BSUTJIAPBKar8pkoIxuRaRW4S0FC8AcgocnItolkZIrwCVCRjcs3DF8mNtQ/bs64aMbU6GICk6cdlWW2aupgkwJsbwfSrkq+ck2y+kqyh1LsZFMAjWxlILykvVbK7lBTAoRgbwXNQXUoF1eKGR8ga4A3dYDKpFUoLgXfpKvmdA4IFqJrfuSAb5JtWTk66RDirhoamVs71kz2Aonct95QpyrY2QrRqSHCK3ixuVoYALy8U/shiFM2q4vM/AEPwa9Zsnaqy9mETYLQ1ZzS1QHzJGOKaApycNHOpGlpJqXd9YavrdNwWfKaGBMTQZ79dg9YAKn1nt+9dXTKx7lkV6IUmQjMkgzVJLg/f0lZLFz3p8VNFxpAdvPye1ansxKv7k22GM+p1IGVLyJRIvqqkyWj9Bdu+CiTDmXDGtNhOqGp7e7f52c3EavIsO7LI2hpuXbL/aSHvhvPD6lZfxtNpNruf/9fulo9mZ0yPfwA=);lineShape=1;" vertex="1" parent="1">
          <mxGeometry x="763.8182016740434" y="994.8224268482768" width="26.525967645907713" height="11.552418528289763" as="geometry" />
        </mxCell>
        <mxCell id="lSrKaYMIX6WWyUWsc2Ek-44" value="" style="rounded=1;whiteSpace=wrap;html=1;strokeColor=#FF0000;strokeWidth=3;fillColor=none;" vertex="1" parent="1">
          <mxGeometry x="630" y="1306.98" width="35.03" height="28.68" as="geometry" />
        </mxCell>
        <mxCell id="lSrKaYMIX6WWyUWsc2Ek-45" value="" style="rounded=1;whiteSpace=wrap;html=1;strokeColor=#0000FF;strokeWidth=3;fillColor=none;" vertex="1" parent="1">
          <mxGeometry x="680" y="1306.9799999999998" width="35.03" height="28.68" as="geometry" />
        </mxCell>
        <mxCell id="lSrKaYMIX6WWyUWsc2Ek-51" value="" style="rounded=1;whiteSpace=wrap;html=1;strokeColor=#0000FF;strokeWidth=3;fillColor=none;" vertex="1" parent="1">
          <mxGeometry x="908.53" y="1239.9999999999998" width="35.03" height="28.68" as="geometry" />
        </mxCell>
      </root>
    </mxGraphModel>
  </diagram>
</mxfile>
